<?xml version="1.0" encoding="utf-8"?>
<!-- Generator: Adobe Illustrator 21.0.0, SVG Export Plug-In . SVG Version: 6.00 Build 0)  -->
<svg version="1.1" id="Layer_1" xmlns="http://www.w3.org/2000/svg" xmlns:xlink="http://www.w3.org/1999/xlink" x="0px" y="0px"
	 viewBox="0 0 400 400" style="enable-background:new 0 0 400 400;" xml:space="preserve">
<g fill="#333">
<g >
	<g>
		<rect x="141.1" y="111.5" width="24" height="177.1"/>
	</g>
	<g>
		<rect x="234.9" y="111.5" width="24" height="177.1"/>
	</g>
	<g>
		<rect x="153.1" y="188" width="92" height="24"/>
	</g>
</g>
<title>Artboard 1</title>
<g >
	<line class="st0" x1="365.2" y1="26.6" x2="365.2" y2="373.4"/>
	<rect x="362.2" y="26.6" width="6" height="346.7"/>
</g>
<g>
	<line class="st0" x1="34.2" y1="25.9" x2="34.2" y2="374.1"/>
	<rect x="31.2" y="25.9" width="6" height="348.1"/>
</g>
<g>
	<line class="st0" x1="32.8" y1="70" x2="201.7" y2="152.1"/>
	<rect x="116.2" y="17.1" transform="matrix(0.4371 -0.8994 0.8994 0.4371 -33.8931 167.9261)" width="2" height="187.8"/>
</g>
<g>
	<line class="st0" x1="367.2" y1="70.5" x2="201.7" y2="152.1"/>
	<rect x="192.2" y="110.3" transform="matrix(0.8969 -0.4423 0.4423 0.8969 -19.8859 137.3005)" width="184.6" height="2"/>
</g>
<g>
	<line class="st0" x1="33.8" y1="324" x2="199.3" y2="256.8"/>
	<rect x="27.2" y="289.4" transform="matrix(0.9265 -0.3764 0.3764 0.9265 -100.716 65.2045)" width="178.7" height="2"/>
</g>
<g>
	<line class="st0" x1="365.8" y1="324" x2="199.3" y2="256.8"/>
	<rect x="281.5" y="200.6" transform="matrix(0.3746 -0.9272 0.9272 0.3746 -92.5408 443.5563)" width="2" height="179.5"/>
</g>
<g>
	<rect x="33.8" y="323.5" width="331.5" height="1"/>
</g>
<g>
	<rect x="32.8" y="69.5" width="333" height="1"/>
</g></g>
</svg>
